<?xml version="1.0"?>
<svg xmlns="http://www.w3.org/2000/svg" xmlns:xlink="http://www.w3.org/1999/xlink" xmlns:svgjs="http://svgjs.com/svgjs" version="1.1" width="512" height="512" x="0" y="0" viewBox="0 0 64 64" style="enable-background:new 0 0 512 512" xml:space="preserve"><g><g xmlns="http://www.w3.org/2000/svg" id="Layer_16" data-name="Layer 16"><path d="m22.785 14.091h4.996v3.999h-4.996z" transform="matrix(.708 -.706 .706 .708 -3.984 22.538)" fill="#ffffff" data-original="#000000" style=""/><path d="m17.835 19.041h4.996v3.999h-4.996z" transform="matrix(.707 -.707 .707 .707 -8.922 20.54)" fill="#ffffff" data-original="#000000" style=""/><path d="m25.344 21.101h1.998v1.998h-1.998z" transform="matrix(.707 -.707 .707 .707 -7.912 25.099)" fill="#ffffff" data-original="#000000" style=""/><path d="m9.346 10.556h5.003v3.999h-5.003z" transform="matrix(.706 -.708 .708 .706 -5.408 12.079)" fill="#ffffff" data-original="#000000" style=""/><path d="m14.296 5.606h5.003v3.999h-5.003z" transform="matrix(.707 -.707 .707 .707 -.458 14.105)" fill="#ffffff" data-original="#000000" style=""/><path d="m13.592 14.798h4.996v3.999h-4.996z" transform="matrix(.707 -.707 .707 .707 -7.165 16.297)" fill="#ffffff" data-original="#000000" style=""/><path d="m18.542 9.848h4.996v3.999h-4.996z" transform="matrix(.706 -.708 .708 .706 -2.206 18.38)" fill="#ffffff" data-original="#000000" style=""/><path d="m51.8 15.03-2.83-2.83-1.41 1.42 2.82 2.82z" fill="#ffffff" data-original="#000000" style=""/><path d="m50.915 5.081h6.01v9.999h-6.01z" transform="matrix(.707 -.707 .707 .707 8.665 41.08)" fill="#ffffff" data-original="#000000" style=""/><path d="m17.003 39.495h1.004v14.001h-1.004z" transform="matrix(.707 -.707 .707 .707 -27.75 25.996)" fill="#ffffff" data-original="#000000" style=""/><path d="m49.655 40.961h4.996v3.999h-4.996z" transform="matrix(.707 -.707 .707 .707 -15.102 49.46)" fill="#ffffff" data-original="#000000" style=""/><path d="m45.412 36.718h4.996v3.999h-4.996z" transform="matrix(.706 -.708 .708 .706 -13.333 45.326)" fill="#ffffff" data-original="#000000" style=""/><path d="m40.901 36.659h1.998v1.998h-1.998z" transform="matrix(.71 -.705 .705 .71 -14.366 40.458)" fill="#ffffff" data-original="#000000" style=""/><path d="m44.705 45.911h4.996v3.999h-4.996z" transform="matrix(.708 -.706 .706 .708 -20.051 47.315)" fill="#ffffff" data-original="#000000" style=""/><path d="m40.462 41.668h4.996v3.999h-4.996z" transform="matrix(.707 -.707 .707 .707 -18.295 43.167)" fill="#ffffff" data-original="#000000" style=""/><path d="m53.894 45.203h5.003v3.999h-5.003z" transform="matrix(.708 -.706 .706 .708 -16.869 53.599)" fill="#ffffff" data-original="#000000" style=""/><path d="m52.51 21.39-9.9-9.9a1.014 1.014 0 0 0 -1.42 0l-19.8 19.8a1.014 1.014 0 0 0 0 1.42l9.9 9.9a1.047 1.047 0 0 0 1.42 0l19.8-19.8a1.008 1.008 0 0 0 0-1.42zm-5.661 1.418-14.142 14.142a1 1 0 0 1 -1.414 0l-4.243-4.243a1 1 0 0 1 0-1.414l14.142-14.142a1 1 0 0 1 1.414 0l4.243 4.243a1 1 0 0 1 0 1.414z" fill="#ffffff" data-original="#000000" style=""/><path d="m48.944 50.153h5.003v3.999h-5.003z" transform="matrix(.706 -.708 .708 .706 -21.81 51.783)" fill="#ffffff" data-original="#000000" style=""/><path d="m21.89 39.28a7.051 7.051 0 0 1 2.83 2.83l1.62-1.62-2.83-2.83z" fill="#ffffff" data-original="#000000" style=""/><path d="m27.95 25.05h18v4h-18z" transform="matrix(.707 -.707 .707 .707 -8.305 34.05)" fill="#ffffff" data-original="#000000" style=""/><path d="m15.81 41.26 6.93 6.93a5 5 0 0 0 -6.93-6.93z" fill="#ffffff" data-original="#000000" style=""/><path d="m16 52.305v-.064a.957.957 0 0 0 -.676-.922 3.908 3.908 0 0 1 -2.643-2.643.957.957 0 0 0 -.922-.676h-.059a.987.987 0 0 0 -.928 1.3 6 6 0 0 0 3.928 3.933.987.987 0 0 0 1.3-.928z" fill="#ffffff" data-original="#000000" style=""/><path d="m3.609 48h-.041a.987.987 0 0 0 -.974 1.1 13.964 13.964 0 0 0 12.3 12.3.987.987 0 0 0 1.1-.974v-.041a.991.991 0 0 0 -.9-.974 11.966 11.966 0 0 1 -10.511-10.511.991.991 0 0 0 -.974-.9z" fill="#ffffff" data-original="#000000" style=""/><path d="m16 56.394v-.039a.958.958 0 0 0 -.787-.956 7.979 7.979 0 0 1 -6.613-6.612.958.958 0 0 0 -.955-.787h-.039a.986.986 0 0 0 -.97 1.146 9.966 9.966 0 0 0 8.218 8.218.986.986 0 0 0 1.146-.97z" fill="#ffffff" data-original="#000000" style=""/></g></g></svg>
